<?xml version="1.0" ?><svg id="Flat" viewBox="0 0 64 64" xmlns="http://www.w3.org/2000/svg"><defs><style>.cls-1{fill:#212529;}.cls-2{fill:#343a40;}.cls-3{fill:#191c1f;}.cls-4{fill:#ffd100;}.cls-5{fill:#fff;}</style></defs><g id="Color"><path class="cls-1" d="M28,22.55,20,31S11,15,13,9l3-2.82C16.622,12.1,18.387,18.547,28,22.55Z"/><path class="cls-1" d="M36,31l-8-8.45c9.656-4.068,11.352-10.387,12-16.37L43,9C45,15,36,31,36,31Z"/><path class="cls-2" d="M43,9c2,6-7,22-7,22l-8-8.447L20,31S11,15,13,9L5.514,11.994A4,4,0,0,0,3,15.708V57a4,4,0,0,0,4,4H49a4,4,0,0,0,4-4V15.708a4,4,0,0,0-2.514-3.714Z"/><path class="cls-3" d="M39.587,9H16.411C17.378,14.065,19.9,19.177,28,22.55,36.147,19.118,38.621,14.083,39.587,9Z"/><path class="cls-1" d="M40,6.18A16.123,16.123,0,0,1,39.65,9H16.35A16.1,16.1,0,0,1,16,6.18l1.82-1.66a7.988,7.988,0,0,1,5.4-2.1h9.56a7.988,7.988,0,0,1,5.4,2.1Z"/><polygon class="cls-3" points="28 22.553 25 25.721 25 61 31 61 31 25.721 28 22.553"/><circle class="cls-4" cx="45" cy="41" r="16"/><circle class="cls-5" cx="39" cy="35" r="3"/><circle class="cls-5" cx="51" cy="47" r="3"/><path class="cls-5" d="M37.5,48.5a2.109,2.109,0,0,1,.009-2.991L49.586,33.586a2,2,0,0,1,2.828,2.828L40.491,48.491A2.109,2.109,0,0,1,37.5,48.5Z"/><path class="cls-1" d="M3,36H14a2,2,0,0,1,2,2V49a2,2,0,0,1-2,2H3a0,0,0,0,1,0,0V36A0,0,0,0,1,3,36Z"/><path class="cls-5" d="M28,12H24a1,1,0,0,0,0,2h4a1,1,0,0,0,0-2Z"/><circle class="cls-5" cx="32" cy="13" r="1"/><circle class="cls-5" cx="28" cy="31" r="1"/><circle class="cls-5" cx="28" cy="43" r="1"/><circle class="cls-5" cx="28" cy="55" r="1"/><rect class="cls-3" height="2" width="13" x="3" y="40"/></g></svg>